# xmcd CD database file
#
# Track frame offsets:
#	150
#	4500
#	34305
#	41715
#	55377
#	58159
#	63603
#	69701
#	89084
#	121104
#	149853
#	194080
#	230993
#
# Disc length: 3763 seconds
#
# Revision: 1
# Processed by: cddbd v1.4PL0 Copyright (c) Steve Scherf et al.
# Submitted via: CDex 1.50beta9
#
DISCID=d60eb10d
DTITLE=Quetzal and Patrick Bauwens - Carnet d'Emeraude - Second Recueil
DYEAR=1999
DGENRE=New Age
TTITLE0=Citation
TTITLE1=Maire Brennan - A place among the stones
TTITLE2=Jeff Johnson and Brian Dunning - The crossing
TTITLE3=Ted Greenwald - Chorale
TTITLE4=Peter Gabriel - Lazarus raised
TTITLE5=Stuart Dempster and Pauline Oliveros - Ione
TTITLE6=David Hykes - Gravity waves
TTITLE7=Michael Stearns - Twin flame
TTITLE8=Rabih Abou Khalil - When the lights go out
TTITLE9=Khalil Chahine - Lux Aeterna
TTITLE10=Georges Delerue - Concerto de l'Adieu
TTITLE11=Wim Mertens - Faith
TTITLE12=Sergei Rachmaninoff - Adagio sostenuto
EXTD=YEAR: 1999
EXTT0=
EXTT1=
EXTT2=
EXTT3=
EXTT4=
EXTT5=
EXTT6=
EXTT7=
EXTT8=
EXTT9=
EXTT10=
EXTT11=
EXTT12=
PLAYORDER=
